<svg width="14" height="14" viewBox="0 0 14 14" fill="none" xmlns="http://www.w3.org/2000/svg">
<path d="M2.40643 0.614305C1.99235 0.624346 1.66482 0.968283 1.67486 1.38237C1.6849 1.79645 2.02884 2.12398 2.44292 2.11394L11.0737 1.90407L0.655214 12.3226C0.362324 12.6155 0.36226 13.0903 0.655214 13.3832C0.948098 13.6761 1.42298 13.6761 1.71587 13.3832L12.1347 2.96445L11.9247 11.5957C11.9147 12.0098 12.2422 12.3537 12.6563 12.3638C13.0703 12.3738 13.4143 12.0462 13.4243 11.6322L13.6733 1.38929C13.6791 1.15588 13.6045 0.939999 13.4753 0.767111C13.4487 0.727655 13.418 0.690178 13.3831 0.655318C13.348 0.620175 13.3102 0.589203 13.2704 0.562545C13.0978 0.433851 12.8822 0.359607 12.6493 0.365263L2.40643 0.614305Z" fill="white"/>
</svg>
