<svg width="1164" height="124" viewBox="0 0 1164 124" fill="none" xmlns="http://www.w3.org/2000/svg">
<path d="M130.551 1.98199V122H110.88V44.478C110.88 41.3793 111.046 38.0317 111.378 34.435L75.107 102.578C73.3916 105.843 70.7633 107.475 67.2219 107.475H64.0679C60.5266 107.475 57.8983 105.843 56.183 102.578L19.4969 34.186C19.6629 36.012 19.8013 37.8103 19.9119 39.581C20.0226 41.3517 20.0779 42.984 20.0779 44.478V122H0.406946V1.98199H17.2559C18.2519 1.98199 19.1096 2.00966 19.8289 2.065C20.5483 2.12032 21.1846 2.25866 21.7379 2.48C22.3466 2.70133 22.8723 3.06099 23.3149 3.559C23.8129 4.05699 24.2833 4.72099 24.7259 5.55099L60.6649 72.2C61.6056 73.9707 62.4633 75.7967 63.2379 77.678C64.0679 79.5593 64.8703 81.496 65.6449 83.488C66.4196 81.4407 67.2219 79.4763 68.052 77.595C68.882 75.6583 69.7673 73.8047 70.7079 72.034L106.149 5.55099C106.592 4.72099 107.062 4.05699 107.56 3.559C108.058 3.06099 108.584 2.70133 109.137 2.48C109.746 2.25866 110.41 2.12032 111.129 2.065C111.848 2.00966 112.706 1.98199 113.702 1.98199H130.551ZM179.739 19.744V53.027H221.737V70.208H179.739V104.155H233.025V122H157.329V1.98199H233.025V19.744H179.739ZM382.955 1.98199V122H363.284V44.478C363.284 41.3793 363.45 38.0317 363.782 34.435L327.511 102.578C325.796 105.843 323.168 107.475 319.626 107.475H316.472C312.931 107.475 310.303 105.843 308.587 102.578L271.901 34.186C272.067 36.012 272.206 37.8103 272.316 39.581C272.427 41.3517 272.482 42.984 272.482 44.478V122H252.811V1.98199H269.66C270.656 1.98199 271.514 2.00966 272.233 2.065C272.953 2.12032 273.589 2.25866 274.142 2.48C274.751 2.70133 275.277 3.06099 275.719 3.559C276.217 4.05699 276.688 4.72099 277.13 5.55099L313.069 72.2C314.01 73.9707 314.868 75.7967 315.642 77.678C316.472 79.5593 317.275 81.496 318.049 83.488C318.824 81.4407 319.626 79.4763 320.456 77.595C321.286 75.6583 322.172 73.8047 323.112 72.034L358.553 5.55099C358.996 4.72099 359.466 4.05699 359.964 3.559C360.462 3.06099 360.988 2.70133 361.541 2.48C362.15 2.25866 362.814 2.12032 363.533 2.065C364.253 2.00966 365.11 1.98199 366.106 1.98199H382.955ZM454.636 104.57C458.786 104.57 462.272 104.072 465.094 103.076C467.916 102.08 470.157 100.752 471.817 99.092C473.532 97.432 474.75 95.4953 475.469 93.282C476.244 91.0687 476.631 88.717 476.631 86.227C476.631 83.6263 476.216 81.3023 475.386 79.255C474.556 77.1523 473.256 75.3817 471.485 73.943C469.714 72.449 467.418 71.3147 464.596 70.54C461.829 69.7653 458.482 69.378 454.553 69.378H432.06V104.57H454.636ZM432.06 19.246V53.94H449.822C457.458 53.94 463.213 52.5567 467.086 49.79C471.015 47.0233 472.979 42.6243 472.979 36.593C472.979 30.3403 471.208 25.886 467.667 23.23C464.126 20.574 458.592 19.246 451.067 19.246H432.06ZM451.067 1.98199C458.924 1.98199 465.647 2.72899 471.236 4.223C476.825 5.71699 481.39 7.84733 484.931 10.614C488.528 13.3807 491.156 16.7283 492.816 20.657C494.476 24.5857 495.306 29.0123 495.306 33.937C495.306 36.759 494.891 39.4703 494.061 42.071C493.231 44.6163 491.931 47.0233 490.16 49.292C488.445 51.5053 486.231 53.525 483.52 55.351C480.864 57.177 477.682 58.7263 473.975 59.999C490.464 63.7063 498.709 72.615 498.709 86.725C498.709 91.8157 497.741 96.519 495.804 100.835C493.867 105.151 491.045 108.886 487.338 112.04C483.631 115.139 479.066 117.573 473.643 119.344C468.22 121.115 462.023 122 455.051 122H409.733V1.98199H451.067ZM541.405 19.744V53.027H583.403V70.208H541.405V104.155H594.691V122H518.995V1.98199H594.691V19.744H541.405ZM650.748 59.086C654.954 59.086 658.606 58.5603 661.704 57.509C664.858 56.4577 667.431 55.019 669.423 53.193C671.471 51.3117 672.992 49.0983 673.988 46.553C674.984 44.0077 675.482 41.2133 675.482 38.17C675.482 32.0833 673.463 27.4077 669.423 24.143C665.439 20.8783 659.325 19.246 651.08 19.246H636.804V59.086H650.748ZM708.184 122H688.015C684.197 122 681.431 120.506 679.715 117.518L654.483 79.089C653.543 77.6503 652.491 76.6267 651.329 76.018C650.223 75.4093 648.563 75.105 646.349 75.105H636.804V122H614.477V1.98199H651.08C659.214 1.98199 666.186 2.83966 671.996 4.55499C677.862 6.21499 682.648 8.56666 686.355 11.61C690.118 14.6533 692.885 18.3053 694.655 22.566C696.426 26.7713 697.311 31.4193 697.311 36.51C697.311 40.5493 696.703 44.3673 695.485 47.964C694.323 51.5607 692.608 54.8253 690.339 57.758C688.126 60.6907 685.359 63.2637 682.039 65.477C678.775 67.6903 675.04 69.4333 670.834 70.706C672.273 71.536 673.601 72.532 674.818 73.694C676.036 74.8007 677.142 76.1287 678.138 77.678L708.184 122ZM785.055 23.811C784.391 24.973 783.672 25.8307 782.897 26.384C782.178 26.882 781.265 27.131 780.158 27.131C778.996 27.131 777.724 26.716 776.34 25.886C775.012 25.0007 773.408 24.0323 771.526 22.981C769.645 21.9297 767.432 20.989 764.886 20.159C762.396 19.2737 759.436 18.831 756.005 18.831C752.907 18.831 750.195 19.2183 747.871 19.993C745.547 20.7123 743.583 21.736 741.978 23.064C740.429 24.392 739.267 25.9967 738.492 27.878C737.718 29.704 737.33 31.7237 737.33 33.937C737.33 36.759 738.105 39.1107 739.654 40.992C741.259 42.8733 743.362 44.478 745.962 45.806C748.563 47.134 751.523 48.3237 754.843 49.375C758.163 50.4263 761.566 51.5607 765.052 52.778C768.538 53.94 771.941 55.3233 775.261 56.928C778.581 58.4773 781.542 60.4693 784.142 62.904C786.743 65.2833 788.818 68.216 790.367 71.702C791.972 75.188 792.774 79.421 792.774 84.401C792.774 89.8237 791.834 94.9143 789.952 99.673C788.126 104.376 785.415 108.499 781.818 112.04C778.277 115.526 773.933 118.293 768.787 120.34C763.641 122.332 757.748 123.328 751.108 123.328C747.29 123.328 743.528 122.941 739.82 122.166C736.113 121.447 732.544 120.395 729.113 119.012C725.738 117.629 722.556 115.969 719.568 114.032C716.58 112.095 713.924 109.937 711.6 107.558L718.157 96.851C718.711 96.0763 719.43 95.44 720.315 94.942C721.201 94.3887 722.141 94.112 723.137 94.112C724.521 94.112 726.015 94.693 727.619 95.855C729.224 96.9617 731.133 98.2067 733.346 99.59C735.56 100.973 738.133 102.246 741.065 103.408C744.053 104.515 747.622 105.068 751.772 105.068C758.136 105.068 763.06 103.574 766.546 100.586C770.032 97.5427 771.775 93.199 771.775 87.555C771.775 84.401 770.973 81.828 769.368 79.836C767.819 77.844 765.744 76.184 763.143 74.856C760.543 73.4727 757.582 72.3107 754.262 71.37C750.942 70.4293 747.567 69.4057 744.136 68.299C740.706 67.1923 737.33 65.8643 734.01 64.315C730.69 62.7657 727.73 60.746 725.129 58.256C722.529 55.766 720.426 52.6673 718.821 48.96C717.272 45.1973 716.497 40.577 716.497 35.099C716.497 30.7277 717.355 26.467 719.07 22.317C720.841 18.167 723.386 14.4873 726.706 11.278C730.026 8.06866 734.121 5.49566 738.99 3.559C743.86 1.62233 749.448 0.653999 755.756 0.653999C762.839 0.653999 769.368 1.76066 775.344 3.974C781.32 6.18733 786.411 9.28599 790.616 13.27L785.055 23.811ZM913.428 1.98199V122H891.018V69.544H834.661V122H812.251V1.98199H834.661V53.608H891.018V1.98199H913.428ZM962.565 122H940.155V1.98199H962.565V122ZM1028.45 62.323C1032.54 62.323 1036.11 61.825 1039.15 60.829C1042.2 59.7777 1044.71 58.3113 1046.71 56.43C1048.75 54.4933 1050.28 52.1693 1051.27 49.458C1052.27 46.6913 1052.77 43.6203 1052.77 40.245C1052.77 37.0357 1052.27 34.1307 1051.27 31.53C1050.28 28.9293 1048.78 26.716 1046.79 24.89C1044.8 23.064 1042.28 21.6807 1039.24 20.74C1036.19 19.744 1032.6 19.246 1028.45 19.246H1011.76V62.323H1028.45ZM1028.45 1.98199C1036.47 1.98199 1043.41 2.92266 1049.28 4.804C1055.14 6.68533 1059.99 9.31366 1063.8 12.689C1067.62 16.0643 1070.44 20.1037 1072.27 24.807C1074.15 29.5103 1075.09 34.6563 1075.09 40.245C1075.09 46.055 1074.12 51.3947 1072.19 56.264C1070.25 61.078 1067.35 65.228 1063.47 68.714C1059.6 72.2 1054.73 74.9113 1048.86 76.848C1043.05 78.7847 1036.25 79.753 1028.45 79.753H1011.76V122H989.436V1.98199H1028.45ZM1156.12 23.811C1155.46 24.973 1154.74 25.8307 1153.97 26.384C1153.25 26.882 1152.33 27.131 1151.23 27.131C1150.06 27.131 1148.79 26.716 1147.41 25.886C1146.08 25.0007 1144.48 24.0323 1142.59 22.981C1140.71 21.9297 1138.5 20.989 1135.95 20.159C1133.46 19.2737 1130.5 18.831 1127.07 18.831C1123.97 18.831 1121.26 19.2183 1118.94 19.993C1116.62 20.7123 1114.65 21.736 1113.05 23.064C1111.5 24.392 1110.34 25.9967 1109.56 27.878C1108.79 29.704 1108.4 31.7237 1108.4 33.937C1108.4 36.759 1109.17 39.1107 1110.72 40.992C1112.33 42.8733 1114.43 44.478 1117.03 45.806C1119.63 47.134 1122.59 48.3237 1125.91 49.375C1129.23 50.4263 1132.63 51.5607 1136.12 52.778C1139.61 53.94 1143.01 55.3233 1146.33 56.928C1149.65 58.4773 1152.61 60.4693 1155.21 62.904C1157.81 65.2833 1159.89 68.216 1161.44 71.702C1163.04 75.188 1163.84 79.421 1163.84 84.401C1163.84 89.8237 1162.9 94.9143 1161.02 99.673C1159.19 104.376 1156.48 108.499 1152.89 112.04C1149.35 115.526 1145 118.293 1139.86 120.34C1134.71 122.332 1128.82 123.328 1122.18 123.328C1118.36 123.328 1114.6 122.941 1110.89 122.166C1107.18 121.447 1103.61 120.395 1100.18 119.012C1096.81 117.629 1093.62 115.969 1090.64 114.032C1087.65 112.095 1084.99 109.937 1082.67 107.558L1089.23 96.851C1089.78 96.0763 1090.5 95.44 1091.38 94.942C1092.27 94.3887 1093.21 94.112 1094.21 94.112C1095.59 94.112 1097.08 94.693 1098.69 95.855C1100.29 96.9617 1102.2 98.2067 1104.41 99.59C1106.63 100.973 1109.2 102.246 1112.13 103.408C1115.12 104.515 1118.69 105.068 1122.84 105.068C1129.2 105.068 1134.13 103.574 1137.61 100.586C1141.1 97.5427 1142.84 93.199 1142.84 87.555C1142.84 84.401 1142.04 81.828 1140.44 79.836C1138.89 77.844 1136.81 76.184 1134.21 74.856C1131.61 73.4727 1128.65 72.3107 1125.33 71.37C1122.01 70.4293 1118.64 69.4057 1115.2 68.299C1111.77 67.1923 1108.4 65.8643 1105.08 64.315C1101.76 62.7657 1098.8 60.746 1096.2 58.256C1093.6 55.766 1091.49 52.6673 1089.89 48.96C1088.34 45.1973 1087.57 40.577 1087.57 35.099C1087.57 30.7277 1088.42 26.467 1090.14 22.317C1091.91 18.167 1094.45 14.4873 1097.77 11.278C1101.09 8.06866 1105.19 5.49566 1110.06 3.559C1114.93 1.62233 1120.52 0.653999 1126.82 0.653999C1133.91 0.653999 1140.44 1.76066 1146.41 3.974C1152.39 6.18733 1157.48 9.28599 1161.68 13.27L1156.12 23.811Z" fill="white"/>
</svg>
