<svg width="234" height="13" viewBox="0 0 234 13" fill="none" xmlns="http://www.w3.org/2000/svg">
<path d="M3.349 7.614L0 0.831H1.343L2.839 4.078L3.128 4.707C3.58133 5.693 3.859 6.288 3.961 6.492H4.029L4.318 5.897C4.794 4.89967 5.07733 4.29333 5.168 4.078L6.664 0.831H7.973L4.607 7.614V12H3.349V7.614ZM25.5161 0.831H31.8571V1.902H26.7741V5.591H31.0581V6.645H26.7741V10.929H32.0271V12H25.5161V0.831ZM56.5682 12L53.7972 7.172H51.6892V12H50.4312V0.831H53.8482C56.4095 0.831 57.6902 1.86233 57.6902 3.925C57.6902 4.775 57.4579 5.46633 56.9932 5.999C56.5399 6.53167 55.9052 6.883 55.0892 7.053L57.9962 12H56.5682ZM51.6892 6.152H53.6442C54.5509 6.152 55.2422 5.965 55.7182 5.591C56.1942 5.217 56.4322 4.66167 56.4322 3.925C56.4322 3.18833 56.1999 2.66133 55.7352 2.344C55.2705 2.01533 54.5735 1.851 53.6442 1.851H51.6892V6.152ZM79.9033 12.204C78.702 12.204 77.7443 11.8357 77.0303 11.099C76.3163 10.351 75.9593 9.144 75.9593 7.478V0.831H77.2173V7.478C77.2173 8.77 77.461 9.69933 77.9483 10.266C78.4356 10.8213 79.0873 11.099 79.9033 11.099C80.742 11.099 81.4106 10.8213 81.9093 10.266C82.408 9.69933 82.6573 8.77 82.6573 7.478V0.831H83.8643V7.478C83.8643 9.144 83.5016 10.351 82.7763 11.099C82.0623 11.8357 81.1046 12.204 79.9033 12.204ZM105.811 12.204C105.04 12.204 104.321 12.0567 103.652 11.762C102.995 11.4673 102.422 11.0593 101.935 10.538L102.7 9.671C103.108 10.113 103.584 10.4643 104.128 10.725C104.672 10.9743 105.239 11.099 105.828 11.099C106.587 11.099 107.182 10.9233 107.613 10.572C108.055 10.2207 108.276 9.75033 108.276 9.161C108.276 8.787 108.197 8.47533 108.038 8.226C107.879 7.97667 107.675 7.77833 107.426 7.631C107.177 7.48367 106.825 7.308 106.372 7.104L104.757 6.39C104.1 6.10667 103.556 5.744 103.125 5.302C102.706 4.86 102.496 4.27067 102.496 3.534C102.496 2.97867 102.643 2.48 102.938 2.038C103.233 1.596 103.641 1.25033 104.162 1.001C104.695 0.751666 105.284 0.626999 105.93 0.626999C106.576 0.626999 107.177 0.751666 107.732 1.001C108.299 1.25033 108.78 1.58467 109.177 2.004L108.497 2.803C107.76 2.089 106.905 1.732 105.93 1.732C105.273 1.732 104.746 1.89067 104.349 2.208C103.952 2.52533 103.754 2.94467 103.754 3.466C103.754 3.81733 103.845 4.112 104.026 4.35C104.207 4.588 104.417 4.775 104.655 4.911C104.893 5.047 105.216 5.20567 105.624 5.387L107.239 6.101C107.976 6.407 108.542 6.78667 108.939 7.24C109.347 7.69333 109.551 8.30533 109.551 9.076C109.551 9.66533 109.398 10.198 109.092 10.674C108.786 11.15 108.35 11.524 107.783 11.796C107.216 12.068 106.559 12.204 105.811 12.204ZM127.783 0.831H129.041V5.557H134.43V0.831H135.688V12H134.43V6.662H129.041V12H127.783V0.831ZM159.889 8.481H155.724L154.585 12H153.31L157.135 0.831H158.529L162.337 12H161.011L159.889 8.481ZM159.566 7.478L158.988 5.676C158.535 4.25933 158.15 2.99567 157.832 1.885H157.764C157.39 3.25633 157.011 4.52 156.625 5.676L156.047 7.478H159.566ZM179.97 0.831H181.228V10.929H186.158V12H179.97V0.831ZM204.155 0.831H205.702L207.895 6.951L208.711 9.314H208.779C208.858 9.09867 208.966 8.77567 209.102 8.345C209.283 7.801 209.442 7.33633 209.578 6.951L211.737 0.831H213.301V12H212.128V5.54C212.128 4.86 212.179 3.78333 212.281 2.31H212.213L211.329 4.843L209.153 10.844H208.269L206.076 4.843L205.192 2.31H205.124L205.158 2.735C205.248 3.93633 205.294 4.87133 205.294 5.54V12H204.155V0.831ZM232.407 0.831H233.665V12H232.407V0.831Z" fill="white"/>
</svg>
