<svg width="1143" height="179" viewBox="0 0 1143 179" fill="none" xmlns="http://www.w3.org/2000/svg">
<path d="M138.96 28.775H86.2036V177H53.6546V28.775H0.898555V2.03399H138.96V28.775ZM214.732 85.282C220.863 85.282 226.187 84.5157 230.704 82.983C235.302 81.4503 239.053 79.353 241.957 76.691C244.942 73.9483 247.16 70.7217 248.612 67.011C250.064 63.3003 250.79 59.2267 250.79 54.79C250.79 45.9167 247.846 39.1003 241.957 34.341C236.149 29.5817 227.235 27.202 215.216 27.202H194.404V85.282H214.732ZM298.464 177H269.061C263.495 177 259.462 174.822 256.961 170.466L220.177 114.443C218.806 112.346 217.273 110.853 215.579 109.966C213.966 109.079 211.546 108.635 208.319 108.635H194.404V177H161.855V2.03399H215.216C227.074 2.03399 237.238 3.28432 245.708 5.78499C254.259 8.20499 261.236 11.6333 266.641 16.07C272.126 20.5067 276.16 25.8307 278.741 32.042C281.322 38.1727 282.613 44.9487 282.613 52.37C282.613 58.2587 281.726 63.8247 279.951 69.068C278.257 74.3113 275.756 79.0707 272.449 83.346C269.222 87.6213 265.189 91.3723 260.349 94.599C255.59 97.8257 250.145 100.367 244.014 102.222C246.111 103.432 248.047 104.884 249.822 106.578C251.597 108.191 253.21 110.127 254.662 112.386L298.464 177ZM409.803 110.934L388.507 52.733C387.458 50.1517 386.369 47.0863 385.24 43.537C384.111 39.9877 382.981 36.156 381.852 32.042C380.803 36.156 379.714 40.028 378.585 43.658C377.456 47.2073 376.367 50.313 375.318 52.975L354.143 110.934H409.803ZM467.278 177H442.11C439.287 177 436.988 176.314 435.213 174.943C433.438 173.491 432.107 171.716 431.22 169.619L418.152 133.924H345.673L332.605 169.619C331.96 171.474 330.709 173.168 328.854 174.701C326.999 176.234 324.7 177 321.957 177H296.547L365.396 2.03399H398.55L467.278 177ZM518.058 177H485.388V2.03399H518.058V177ZM704.731 2.03399V177H688.033C685.452 177 683.274 176.597 681.499 175.79C679.805 174.903 678.151 173.451 676.538 171.434L585.183 54.79C585.667 60.114 585.909 65.0347 585.909 69.552V177H557.232V2.03399H574.293C575.664 2.03399 576.834 2.11465 577.802 2.27598C578.851 2.35666 579.738 2.59866 580.464 3.00199C581.271 3.32466 582.037 3.849 582.763 4.57499C583.489 5.22033 584.296 6.10766 585.183 7.23699L676.901 124.365C676.659 121.542 676.457 118.759 676.296 116.016C676.135 113.273 676.054 110.732 676.054 108.393V2.03399H704.731ZM776.365 27.928V76.449H837.591V101.496H776.365V150.985H854.047V177H743.695V2.03399H854.047V27.928H776.365ZM935.769 85.282C941.9 85.282 947.224 84.5157 951.741 82.983C956.339 81.4503 960.09 79.353 962.994 76.691C965.979 73.9483 968.197 70.7217 969.649 67.011C971.101 63.3003 971.827 59.2267 971.827 54.79C971.827 45.9167 968.883 39.1003 962.994 34.341C957.186 29.5817 948.272 27.202 936.253 27.202H915.441V85.282H935.769ZM1019.5 177H990.098C984.532 177 980.499 174.822 977.998 170.466L941.214 114.443C939.843 112.346 938.31 110.853 936.616 109.966C935.003 109.079 932.583 108.635 929.356 108.635H915.441V177H882.892V2.03399H936.253C948.111 2.03399 958.275 3.28432 966.745 5.78499C975.296 8.20499 982.273 11.6333 987.678 16.07C993.163 20.5067 997.197 25.8307 999.778 32.042C1002.36 38.1727 1003.65 44.9487 1003.65 52.37C1003.65 58.2587 1002.76 63.8247 1000.99 69.068C999.294 74.3113 996.793 79.0707 993.486 83.346C990.259 87.6213 986.226 91.3723 981.386 94.599C976.627 97.8257 971.182 100.367 965.051 102.222C967.148 103.432 969.084 104.884 970.859 106.578C972.634 108.191 974.247 110.127 975.699 112.386L1019.5 177ZM1131.57 33.857C1130.6 35.551 1129.55 36.8013 1128.42 37.608C1127.37 38.334 1126.04 38.697 1124.43 38.697C1122.73 38.697 1120.88 38.092 1118.86 36.882C1116.93 35.5913 1114.59 34.1797 1111.84 32.647C1109.1 31.1143 1105.87 29.743 1102.16 28.533C1098.53 27.2423 1094.22 26.597 1089.22 26.597C1084.7 26.597 1080.75 27.1617 1077.36 28.291C1073.97 29.3397 1071.11 30.832 1068.77 32.768C1066.51 34.704 1064.81 37.0433 1063.69 39.786C1062.56 42.448 1061.99 45.3923 1061.99 48.619C1061.99 52.733 1063.12 56.1613 1065.38 58.904C1067.72 61.6467 1070.78 63.986 1074.58 65.922C1078.37 67.858 1082.68 69.5923 1087.52 71.125C1092.36 72.6577 1097.32 74.3113 1102.41 76.086C1107.49 77.78 1112.45 79.7967 1117.29 82.136C1122.13 84.3947 1126.44 87.2987 1130.24 90.848C1134.03 94.3167 1137.05 98.592 1139.31 103.674C1141.65 108.756 1142.82 114.927 1142.82 122.187C1142.82 130.092 1141.45 137.514 1138.71 144.451C1136.04 151.308 1132.09 157.317 1126.85 162.48C1121.68 167.562 1115.35 171.595 1107.85 174.58C1100.35 177.484 1091.76 178.936 1082.08 178.936C1076.51 178.936 1071.03 178.371 1065.62 177.242C1060.22 176.193 1055.01 174.661 1050.01 172.644C1045.09 170.627 1040.45 168.207 1036.1 165.384C1031.74 162.561 1027.87 159.415 1024.48 155.946L1034.04 140.337C1034.85 139.208 1035.9 138.28 1037.19 137.554C1038.48 136.747 1039.85 136.344 1041.3 136.344C1043.32 136.344 1045.49 137.191 1047.83 138.885C1050.17 140.498 1052.96 142.313 1056.18 144.33C1059.41 146.347 1063.16 148.202 1067.44 149.896C1071.79 151.509 1077 152.316 1083.05 152.316C1092.32 152.316 1099.5 150.138 1104.58 145.782C1109.67 141.345 1112.21 135.013 1112.21 126.785C1112.21 122.187 1111.04 118.436 1108.7 115.532C1106.44 112.628 1103.41 110.208 1099.62 108.272C1095.83 106.255 1091.52 104.561 1086.68 103.19C1081.84 101.819 1076.91 100.326 1071.91 98.713C1066.91 97.0997 1061.99 95.1637 1057.15 92.905C1052.31 90.6463 1048 87.702 1044.2 84.072C1040.41 80.442 1037.35 75.9247 1035.01 70.52C1032.75 65.0347 1031.62 58.299 1031.62 50.313C1031.62 43.9403 1032.87 37.729 1035.37 31.679C1037.95 25.629 1041.66 20.2647 1046.5 15.586C1051.34 10.9073 1057.31 7.15633 1064.41 4.33299C1071.51 1.50966 1079.66 0.0979985 1088.85 0.0979985C1099.18 0.0979985 1108.7 1.71133 1117.41 4.93799C1126.12 8.16466 1133.54 12.682 1139.67 18.49L1131.57 33.857Z" fill="white"/>
</svg>
