<svg width="1060" height="82" viewBox="0 0 1060 82" fill="none" xmlns="http://www.w3.org/2000/svg">
<path d="M23.8703 51.68L0.230312 1.63999H17.8703L25.4303 20.36L31.9103 37.64H32.3903C32.7103 36.92 33.0303 36.16 33.3503 35.36C33.6703 34.56 34.0303 33.68 34.4303 32.72C36.3503 27.84 37.9503 23.72 39.2303 20.36L46.7903 1.63999H63.9503L40.3103 51.68V80H23.8703V51.68ZM115.543 1.63999H164.023V15.44H131.983V32.6H159.223V46.4H131.983V66.2H165.223V80H115.543V1.63999ZM266.413 80L250.813 50.96H240.373V80H223.933V1.63999H251.533C260.653 1.63999 267.893 3.52 273.253 7.28C278.613 10.96 281.293 17.08 281.293 25.64C281.293 31.24 280.013 35.96 277.453 39.8C274.893 43.56 271.333 46.36 266.773 48.2L284.893 80H266.413ZM240.373 37.88H250.093C255.053 37.88 258.813 36.88 261.373 34.88C263.933 32.8 265.213 29.72 265.213 25.64C265.213 21.72 263.973 18.92 261.493 17.24C259.013 15.56 255.213 14.72 250.093 14.72H240.373V37.88ZM370.067 81.44C360.067 81.44 352.427 78.44 347.147 72.44C341.947 66.44 339.347 57.08 339.347 44.36V1.63999H355.787V45.92C355.787 53.52 356.987 58.96 359.387 62.24C361.787 65.52 365.347 67.16 370.067 67.16C374.867 67.16 378.507 65.52 380.987 62.24C383.467 58.96 384.707 53.52 384.707 45.92V1.63999H400.547V44.36C400.547 57.08 397.947 66.44 392.747 72.44C387.627 78.44 380.067 81.44 370.067 81.44ZM484.511 81.44C479.231 81.44 474.071 80.48 469.031 78.56C463.991 76.56 459.551 73.72 455.711 70.04L465.191 58.76C468.071 61.32 471.231 63.36 474.671 64.88C478.191 66.4 481.591 67.16 484.871 67.16C488.711 67.16 491.631 66.44 493.631 65C495.711 63.48 496.751 61.4 496.751 58.76C496.751 57.08 496.271 55.68 495.311 54.56C494.431 53.44 493.271 52.52 491.831 51.8C490.471 51.08 488.231 50.08 485.111 48.8L474.791 44.36C470.151 42.44 466.351 39.76 463.391 36.32C460.431 32.8 458.951 28.4 458.951 23.12C458.951 18.88 460.111 15.04 462.431 11.6C464.831 8.08 468.111 5.32 472.271 3.31999C476.431 1.24 481.111 0.199997 486.311 0.199997C490.871 0.199997 495.351 1.12 499.751 2.96C504.151 4.72 507.951 7.2 511.151 10.4L502.871 20.84C500.151 18.68 497.471 17.08 494.831 16.04C492.191 15 489.351 14.48 486.311 14.48C483.031 14.48 480.431 15.16 478.511 16.52C476.591 17.88 475.631 19.76 475.631 22.16C475.631 23.84 476.111 25.24 477.071 26.36C478.111 27.48 479.351 28.4 480.791 29.12C482.311 29.84 484.631 30.84 487.751 32.12L497.831 36.2C502.871 38.28 506.751 41.04 509.471 44.48C512.191 47.84 513.551 52.16 513.551 57.44C513.551 61.84 512.391 65.88 510.071 69.56C507.751 73.16 504.391 76.04 499.991 78.2C495.591 80.36 490.431 81.44 484.511 81.44ZM570.082 1.63999H586.522V32.24H615.082V1.63999H631.522V80H615.082V46.64H586.522V80H570.082V1.63999ZM730.072 60.44H705.472L700.192 80H683.392L708.352 1.63999H727.912L752.752 80H735.352L730.072 60.44ZM726.712 47.72L724.552 39.68C723.592 36.16 722.152 30.64 720.232 23.12L717.952 14.24H717.472C715.072 24.56 712.952 33.04 711.112 39.68L708.952 47.72H726.712ZM804.675 1.63999H821.115V66.2H852.555V80H804.675V1.63999ZM909.199 1.63999H927.319L940.399 37.64C941.599 41.08 942.639 44.36 943.519 47.48L945.079 52.4H945.559L947.719 45.56C948.999 41.24 949.839 38.6 950.239 37.64L962.959 1.63999H981.079V80H966.079V48.92C966.079 44.52 966.599 37.4 967.639 27.56L968.119 22.88H967.639L961.279 41.24L949.639 73.04H940.279L928.639 41.24L922.399 22.88H921.919L922.399 27.56C923.439 37.4 923.959 44.52 923.959 48.92V80H909.199V1.63999ZM1043.02 1.63999H1059.46V80H1043.02V1.63999Z" fill="white"/>
</svg>
