<svg width="1209" height="256" viewBox="0 0 1209 256" fill="none" xmlns="http://www.w3.org/2000/svg">
<path d="M162.187 158.542L131.739 75.329C130.24 71.6383 128.683 67.2557 127.068 62.181C125.453 57.1063 123.839 51.628 122.224 45.746C120.725 51.628 119.168 57.164 117.553 62.354C115.938 67.4287 114.381 71.869 112.882 75.675L82.6071 158.542H162.187ZM244.362 253H208.378C204.341 253 201.054 252.02 198.517 250.059C195.98 247.983 194.077 245.446 192.808 242.447L174.124 191.412H70.4971L51.8131 242.447C50.8904 245.1 49.1028 247.522 46.4501 249.713C43.7974 251.904 40.5104 253 36.5891 253H0.259109L98.6961 2.84198H146.098L244.362 253ZM363.848 216.67C372.498 216.67 379.764 215.632 385.646 213.556C391.528 211.48 396.199 208.712 399.659 205.252C403.235 201.792 405.772 197.755 407.271 193.142C408.886 188.529 409.693 183.627 409.693 178.437C409.693 173.016 408.828 168.172 407.098 163.905C405.368 159.522 402.658 155.832 398.967 152.833C395.277 149.719 390.49 147.355 384.608 145.74C378.842 144.125 371.864 143.318 363.675 143.318H316.792V216.67H363.848ZM316.792 38.826V111.14H353.814C369.73 111.14 381.725 108.257 389.798 102.49C397.987 96.7233 402.081 87.5543 402.081 74.983C402.081 61.9503 398.391 52.666 391.009 47.13C383.628 41.594 372.095 38.826 356.409 38.826H316.792ZM356.409 2.84198C372.787 2.84198 386.8 4.39899 398.448 7.51299C410.097 10.627 419.612 15.0673 426.993 20.834C434.49 26.6007 439.968 33.5783 443.428 41.767C446.888 49.9557 448.618 59.1823 448.618 69.447C448.618 75.329 447.753 80.9803 446.023 86.401C444.293 91.7063 441.583 96.7233 437.892 101.452C434.317 106.065 429.704 110.275 424.052 114.081C418.516 117.887 411.885 121.116 404.157 123.769C438.527 131.496 455.711 150.065 455.711 179.475C455.711 190.086 453.693 199.889 449.656 208.885C445.62 217.881 439.738 225.666 432.01 232.24C424.283 238.699 414.768 243.773 403.465 247.464C392.163 251.155 379.245 253 364.713 253H270.255V2.84198H356.409ZM736.561 127.921C736.561 146.259 733.504 163.271 727.392 178.956C721.394 194.526 712.86 208.02 701.788 219.438C690.716 230.856 677.395 239.794 661.825 246.253C646.255 252.596 628.955 255.768 609.925 255.768C591.01 255.768 573.768 252.596 558.198 246.253C542.628 239.794 529.249 230.856 518.062 219.438C506.99 208.02 498.397 194.526 492.285 178.956C486.172 163.271 483.116 146.259 483.116 127.921C483.116 109.583 486.172 92.629 492.285 77.059C498.397 61.3737 506.99 47.822 518.062 36.404C529.249 24.986 542.628 16.1053 558.198 9.762C573.768 3.30333 591.01 0.0739979 609.925 0.0739979C622.611 0.0739979 634.548 1.57333 645.736 4.57198C656.923 7.45533 667.188 11.6073 676.53 17.028C685.872 22.3333 694.233 28.8497 701.615 36.577C709.111 44.189 715.455 52.7237 720.645 62.181C725.835 71.6383 729.756 81.903 732.409 92.975C735.177 104.047 736.561 115.696 736.561 127.921ZM688.986 127.921C688.986 114.196 687.14 101.913 683.45 91.072C679.759 80.1153 674.511 70.831 667.707 63.219C660.902 55.607 652.598 49.7827 642.795 45.746C633.107 41.7093 622.15 39.691 609.925 39.691C597.699 39.691 586.685 41.7093 576.882 45.746C567.194 49.7827 558.89 55.607 551.97 63.219C545.165 70.831 539.917 80.1153 536.227 91.072C532.536 101.913 530.691 114.196 530.691 127.921C530.691 141.646 532.536 153.986 536.227 164.943C539.917 175.784 545.165 185.011 551.97 192.623C558.89 200.12 567.194 205.886 576.882 209.923C586.685 213.96 597.699 215.978 609.925 215.978C622.15 215.978 633.107 213.96 642.795 209.923C652.598 205.886 660.902 200.12 667.707 192.623C674.511 185.011 679.759 175.784 683.45 164.943C687.14 153.986 688.986 141.646 688.986 127.921ZM878.115 215.459C887.111 215.459 895.127 213.96 902.162 210.961C909.313 207.962 915.31 203.753 920.154 198.332C924.998 192.911 928.689 186.337 931.226 178.61C933.879 170.883 935.205 162.233 935.205 152.66V2.84198H981.742V152.66C981.742 167.538 979.32 181.32 974.476 194.007C969.748 206.578 962.885 217.477 953.889 226.704C945.009 235.815 934.167 242.966 921.365 248.156C908.563 253.231 894.147 255.768 878.115 255.768C861.969 255.768 847.494 253.231 834.692 248.156C821.89 242.966 810.991 235.815 801.995 226.704C793.115 217.477 786.252 206.578 781.408 194.007C776.68 181.32 774.315 167.538 774.315 152.66V2.84198H820.852V152.487C820.852 162.06 822.121 170.71 824.658 178.437C827.311 186.164 831.059 192.796 835.903 198.332C840.863 203.753 846.86 207.962 853.895 210.961C861.046 213.96 869.119 215.459 878.115 215.459ZM1208.96 41.075H1133.53V253H1086.99V41.075H1011.56V2.84198H1208.96V41.075Z" fill="white"/>
</svg>
