<svg width="1156" height="335" viewBox="0 0 1156 335" fill="none" xmlns="http://www.w3.org/2000/svg">
<path d="M122.718 283.54C134.018 283.54 143.51 282.184 151.194 279.472C158.878 276.76 164.98 273.144 169.5 268.624C174.171 264.104 177.486 258.831 179.444 252.804C181.554 246.777 182.608 240.374 182.608 233.594C182.608 226.513 181.478 220.185 179.218 214.61C176.958 208.885 173.418 204.063 168.596 200.146C163.775 196.078 157.522 192.989 149.838 190.88C142.305 188.771 133.19 187.716 122.492 187.716H61.2464V283.54H122.718ZM61.2464 51.212V145.68H109.61C130.402 145.68 146.072 141.913 156.618 134.38C167.316 126.847 172.664 114.869 172.664 98.446C172.664 81.4207 167.843 69.292 158.2 62.06C148.558 54.828 133.491 51.212 113 51.212H61.2464ZM113 4.20398C134.395 4.20398 152.701 6.23798 167.918 10.306C183.136 14.374 195.566 20.1747 205.208 27.708C215.002 35.2413 222.158 44.3567 226.678 55.054C231.198 65.7513 233.458 77.8046 233.458 91.214C233.458 98.898 232.328 106.281 230.068 113.362C227.808 120.293 224.268 126.847 219.446 133.024C214.776 139.051 208.749 144.55 201.366 149.522C194.134 154.494 185.471 158.713 175.376 162.178C220.275 172.273 242.724 196.53 242.724 234.95C242.724 248.811 240.088 261.618 234.814 273.37C229.541 285.122 221.857 295.292 211.762 303.88C201.668 312.317 189.238 318.947 174.472 323.768C159.707 328.589 142.832 331 123.848 331H0.452409V4.20398H113ZM489.382 280.828V331H297.96V4.20398H358.754V280.828H489.382ZM832.966 167.602C832.966 191.558 828.973 213.781 820.988 234.272C813.153 254.612 802.004 272.24 787.54 287.156C773.076 302.072 755.674 313.749 735.334 322.186C714.994 330.473 692.394 334.616 667.534 334.616C642.824 334.616 620.3 330.473 599.96 322.186C579.62 313.749 562.142 302.072 547.528 287.156C533.064 272.24 521.839 254.612 513.854 234.272C505.868 213.781 501.876 191.558 501.876 167.602C501.876 143.646 505.868 121.498 513.854 101.158C521.839 80.6673 533.064 62.964 547.528 48.048C562.142 33.132 579.62 21.5307 599.96 13.244C620.3 4.80666 642.824 0.587997 667.534 0.587997C684.107 0.587997 699.701 2.54666 714.316 6.46398C728.93 10.2307 742.34 15.6547 754.544 22.736C766.748 29.6666 777.671 38.1793 787.314 48.274C797.107 58.218 805.394 69.3673 812.174 81.722C818.954 94.0767 824.076 107.486 827.542 121.95C831.158 136.414 832.966 151.631 832.966 167.602ZM770.816 167.602C770.816 149.673 768.405 133.627 763.584 119.464C758.762 105.151 751.907 93.022 743.018 83.078C734.128 73.134 723.28 65.5253 710.474 60.252C697.818 54.9787 683.504 52.342 667.534 52.342C651.563 52.342 637.174 54.9787 624.368 60.252C611.712 65.5253 600.864 73.134 591.824 83.078C582.934 93.022 576.079 105.151 571.258 119.464C566.436 133.627 564.026 149.673 564.026 167.602C564.026 185.531 566.436 201.653 571.258 215.966C576.079 230.129 582.934 242.182 591.824 252.126C600.864 261.919 611.712 269.453 624.368 274.726C637.174 279.999 651.563 282.636 667.534 282.636C683.504 282.636 697.818 279.999 710.474 274.726C723.28 269.453 734.128 261.919 743.018 252.126C751.907 242.182 758.762 230.129 763.584 215.966C768.405 201.653 770.816 185.531 770.816 167.602ZM1155.75 167.15V299.36C1139.17 311.564 1121.47 320.529 1102.64 326.254C1083.95 331.829 1063.92 334.616 1042.52 334.616C1015.85 334.616 991.671 330.473 969.975 322.186C948.429 313.899 929.973 302.373 914.605 287.608C899.387 272.843 887.635 255.215 879.349 234.724C871.062 214.233 866.919 191.859 866.919 167.602C866.919 143.043 870.911 120.519 878.897 100.028C886.882 79.5373 898.182 61.9093 912.797 47.144C927.562 32.3786 945.416 20.928 966.359 12.792C987.301 4.65599 1010.81 0.587997 1036.87 0.587997C1050.13 0.587997 1062.48 1.64266 1073.93 3.75198C1085.54 5.86133 1096.23 8.79933 1106.03 12.566C1115.97 16.182 1125.01 20.6266 1133.15 25.9C1141.28 31.1733 1148.74 36.974 1155.52 43.302L1138.12 70.874C1135.41 75.2433 1131.87 77.9553 1127.5 79.01C1123.13 79.914 1118.38 78.784 1113.26 75.62C1108.29 72.7573 1103.31 69.8947 1098.34 67.032C1093.37 64.1693 1087.8 61.6833 1081.62 59.574C1075.59 57.4647 1068.74 55.732 1061.05 54.376C1053.52 53.02 1044.78 52.342 1034.84 52.342C1018.72 52.342 1004.1 55.054 990.993 60.478C978.035 65.902 966.961 73.6613 957.771 83.756C948.58 93.8506 941.499 105.979 936.527 120.142C931.555 134.305 929.069 150.125 929.069 167.602C929.069 186.285 931.705 203.009 936.979 217.774C942.403 232.389 949.936 244.819 959.579 255.064C969.372 265.159 981.124 272.918 994.835 278.342C1008.55 283.615 1023.84 286.252 1040.71 286.252C1052.77 286.252 1063.54 284.971 1073.03 282.41C1082.52 279.849 1091.79 276.383 1100.83 272.014V212.802H1059.7C1055.78 212.802 1052.69 211.747 1050.43 209.638C1048.32 207.378 1047.27 204.666 1047.27 201.502V167.15H1155.75Z" fill="white"/>
</svg>
