<svg width="55" height="55" viewBox="0 0 55 55" fill="none" xmlns="http://www.w3.org/2000/svg">
<circle cx="27.5" cy="27.5" r="27.5" fill="white"/>
<path d="M22.0959 21.5757C21.6818 21.5858 21.3543 21.9297 21.3643 22.3438C21.3744 22.7579 21.7183 23.0854 22.1324 23.0754L30.7632 22.8655L20.3447 33.284C20.0518 33.5769 20.0517 34.0517 20.3447 34.3447C20.6376 34.6376 21.1124 34.6376 21.4053 34.3447L31.8241 23.9259L31.6142 32.5572C31.6041 32.9712 31.9316 33.3151 32.3457 33.3252C32.7598 33.3352 33.1037 33.0077 33.1138 32.5936L33.3628 22.3507C33.3685 22.1173 33.2939 21.9014 33.1647 21.7285C33.1381 21.6891 33.1075 21.6516 33.0726 21.6167C33.0374 21.5816 32.9997 21.5506 32.9599 21.524C32.7872 21.3953 32.5717 21.321 32.3388 21.3267L22.0959 21.5757Z" fill="black"/>
</svg>
