<svg width="1159" height="214" viewBox="0 0 1159 214" fill="none" xmlns="http://www.w3.org/2000/svg">
<path d="M155.254 161.896C157.366 161.896 159.238 162.712 160.87 164.344L176.134 180.904C167.686 191.368 157.27 199.384 144.886 204.952C132.598 210.52 117.814 213.304 100.534 213.304C85.0781 213.304 71.1581 210.664 58.7741 205.384C46.4861 200.104 35.9741 192.76 27.2381 183.352C18.5021 173.944 11.7821 162.712 7.07812 149.656C2.47013 136.6 0.166126 122.344 0.166126 106.888C0.166126 91.24 2.66213 76.936 7.65413 63.976C12.6461 50.92 19.6541 39.688 28.6781 30.28C37.7981 20.872 48.6461 13.576 61.2221 8.39199C73.7981 3.112 87.7181 0.471998 102.982 0.471998C118.15 0.471998 131.59 2.96799 143.302 7.95999C155.11 12.952 165.142 19.48 173.398 27.544L160.438 45.544C159.67 46.696 158.662 47.704 157.414 48.568C156.262 49.432 154.63 49.864 152.518 49.864C151.078 49.864 149.59 49.48 148.054 48.712C146.518 47.848 144.838 46.84 143.014 45.688C141.19 44.44 139.078 43.096 136.678 41.656C134.278 40.216 131.494 38.92 128.326 37.768C125.158 36.52 121.462 35.512 117.238 34.744C113.11 33.88 108.31 33.448 102.838 33.448C93.5261 33.448 84.9821 35.128 77.2061 38.488C69.5261 41.752 62.9021 46.552 57.3341 52.888C51.7661 59.128 47.4461 66.808 44.3741 75.928C41.3021 84.952 39.7661 95.272 39.7661 106.888C39.7661 118.6 41.3981 129.016 44.6621 138.136C48.0221 147.256 52.5341 154.936 58.1981 161.176C63.8621 167.416 70.5341 172.216 78.2141 175.576C85.8941 178.84 94.1501 180.472 102.982 180.472C108.262 180.472 113.014 180.184 117.238 179.608C121.558 179.032 125.494 178.12 129.046 176.872C132.694 175.624 136.102 174.04 139.27 172.12C142.534 170.104 145.75 167.656 148.918 164.776C149.878 163.912 150.886 163.24 151.942 162.76C152.998 162.184 154.102 161.896 155.254 161.896ZM324.636 179.032V211H202.668V2.77599H241.404V179.032H324.636ZM462.309 132.376L436.965 63.112C435.717 60.04 434.421 56.392 433.077 52.168C431.733 47.944 430.389 43.384 429.045 38.488C427.797 43.384 426.501 47.992 425.157 52.312C423.813 56.536 422.517 60.232 421.269 63.4L396.069 132.376H462.309ZM530.709 211H500.757C497.397 211 494.661 210.184 492.549 208.552C490.437 206.824 488.853 204.712 487.797 202.216L472.245 159.736H385.989L370.437 202.216C369.669 204.424 368.181 206.44 365.973 208.264C363.765 210.088 361.029 211 357.765 211H327.525L409.461 2.77599H448.917L530.709 211ZM663.142 40.648C661.99 42.664 660.742 44.152 659.398 45.112C658.15 45.976 656.566 46.408 654.646 46.408C652.63 46.408 650.422 45.688 648.022 44.248C645.718 42.712 642.934 41.032 639.67 39.208C636.406 37.384 632.566 35.752 628.15 34.312C623.83 32.776 618.694 32.008 612.742 32.008C607.366 32.008 602.662 32.68 598.63 34.024C594.598 35.272 591.19 37.048 588.406 39.352C585.718 41.656 583.702 44.44 582.358 47.704C581.014 50.872 580.342 54.376 580.342 58.216C580.342 63.112 581.686 67.192 584.374 70.456C587.158 73.72 590.806 76.504 595.318 78.808C599.83 81.112 604.966 83.176 610.726 85C616.486 86.824 622.39 88.792 628.438 90.904C634.486 92.92 640.39 95.32 646.15 98.104C651.91 100.792 657.046 104.248 661.558 108.472C666.07 112.6 669.67 117.688 672.358 123.736C675.142 129.784 676.534 137.128 676.534 145.768C676.534 155.176 674.902 164.008 671.638 172.264C668.47 180.424 663.766 187.576 657.526 193.72C651.382 199.768 643.846 204.568 634.918 208.12C625.99 211.576 615.766 213.304 604.246 213.304C597.622 213.304 591.094 212.632 584.662 211.288C578.23 210.04 572.038 208.216 566.086 205.816C560.23 203.416 554.71 200.536 549.526 197.176C544.342 193.816 539.734 190.072 535.702 185.944L547.078 167.368C548.038 166.024 549.286 164.92 550.822 164.056C552.358 163.096 553.99 162.616 555.718 162.616C558.118 162.616 560.71 163.624 563.494 165.64C566.278 167.56 569.59 169.72 573.43 172.12C577.27 174.52 581.734 176.728 586.822 178.744C592.006 180.664 598.198 181.624 605.398 181.624C616.438 181.624 624.982 179.032 631.03 173.848C637.078 168.568 640.102 161.032 640.102 151.24C640.102 145.768 638.71 141.304 635.926 137.848C633.238 134.392 629.638 131.512 625.126 129.208C620.614 126.808 615.478 124.792 609.718 123.16C603.958 121.528 598.102 119.752 592.15 117.832C586.198 115.912 580.342 113.608 574.582 110.92C568.822 108.232 563.686 104.728 559.174 100.408C554.662 96.088 551.014 90.712 548.23 84.28C545.542 77.752 544.198 69.736 544.198 60.232C544.198 52.648 545.686 45.256 548.662 38.056C551.734 30.856 556.15 24.472 561.91 18.904C567.67 13.336 574.774 8.87199 583.222 5.51199C591.67 2.152 601.366 0.471998 612.31 0.471998C624.598 0.471998 635.926 2.392 646.294 6.23199C656.662 10.072 665.494 15.448 672.79 22.36L663.142 40.648ZM821.205 40.648C820.053 42.664 818.805 44.152 817.461 45.112C816.213 45.976 814.629 46.408 812.709 46.408C810.693 46.408 808.485 45.688 806.085 44.248C803.781 42.712 800.997 41.032 797.733 39.208C794.469 37.384 790.629 35.752 786.213 34.312C781.893 32.776 776.757 32.008 770.805 32.008C765.429 32.008 760.725 32.68 756.693 34.024C752.661 35.272 749.253 37.048 746.469 39.352C743.781 41.656 741.765 44.44 740.421 47.704C739.077 50.872 738.405 54.376 738.405 58.216C738.405 63.112 739.749 67.192 742.437 70.456C745.221 73.72 748.869 76.504 753.381 78.808C757.893 81.112 763.029 83.176 768.789 85C774.549 86.824 780.453 88.792 786.501 90.904C792.549 92.92 798.453 95.32 804.213 98.104C809.973 100.792 815.109 104.248 819.621 108.472C824.133 112.6 827.733 117.688 830.421 123.736C833.205 129.784 834.597 137.128 834.597 145.768C834.597 155.176 832.965 164.008 829.701 172.264C826.533 180.424 821.829 187.576 815.589 193.72C809.445 199.768 801.909 204.568 792.981 208.12C784.053 211.576 773.829 213.304 762.309 213.304C755.685 213.304 749.157 212.632 742.725 211.288C736.293 210.04 730.101 208.216 724.149 205.816C718.293 203.416 712.773 200.536 707.589 197.176C702.405 193.816 697.797 190.072 693.765 185.944L705.141 167.368C706.101 166.024 707.349 164.92 708.885 164.056C710.421 163.096 712.053 162.616 713.781 162.616C716.181 162.616 718.773 163.624 721.557 165.64C724.341 167.56 727.653 169.72 731.493 172.12C735.333 174.52 739.797 176.728 744.885 178.744C750.069 180.664 756.261 181.624 763.461 181.624C774.501 181.624 783.045 179.032 789.093 173.848C795.141 168.568 798.165 161.032 798.165 151.24C798.165 145.768 796.773 141.304 793.989 137.848C791.301 134.392 787.701 131.512 783.189 129.208C778.677 126.808 773.541 124.792 767.781 123.16C762.021 121.528 756.165 119.752 750.213 117.832C744.261 115.912 738.405 113.608 732.645 110.92C726.885 108.232 721.749 104.728 717.237 100.408C712.725 96.088 709.077 90.712 706.293 84.28C703.605 77.752 702.261 69.736 702.261 60.232C702.261 52.648 703.749 45.256 706.725 38.056C709.797 30.856 714.213 24.472 719.973 18.904C725.733 13.336 732.837 8.87199 741.285 5.51199C749.733 2.152 759.429 0.471998 770.373 0.471998C782.661 0.471998 793.989 2.392 804.357 6.23199C814.725 10.072 823.557 15.448 830.853 22.36L821.205 40.648ZM907.267 33.592V91.336H980.131V121.144H907.267V180.04H999.715V211H868.387V2.77599H999.715V33.592H907.267ZM1144.92 40.648C1143.77 42.664 1142.52 44.152 1141.18 45.112C1139.93 45.976 1138.35 46.408 1136.43 46.408C1134.41 46.408 1132.2 45.688 1129.8 44.248C1127.5 42.712 1124.72 41.032 1121.45 39.208C1118.19 37.384 1114.35 35.752 1109.93 34.312C1105.61 32.776 1100.48 32.008 1094.52 32.008C1089.15 32.008 1084.44 32.68 1080.41 34.024C1076.38 35.272 1072.97 37.048 1070.19 39.352C1067.5 41.656 1065.48 44.44 1064.14 47.704C1062.8 50.872 1062.12 54.376 1062.12 58.216C1062.12 63.112 1063.47 67.192 1066.16 70.456C1068.94 73.72 1072.59 76.504 1077.1 78.808C1081.61 81.112 1086.75 83.176 1092.51 85C1098.27 86.824 1104.17 88.792 1110.22 90.904C1116.27 92.92 1122.17 95.32 1127.93 98.104C1133.69 100.792 1138.83 104.248 1143.34 108.472C1147.85 112.6 1151.45 117.688 1154.14 123.736C1156.92 129.784 1158.32 137.128 1158.32 145.768C1158.32 155.176 1156.68 164.008 1153.42 172.264C1150.25 180.424 1145.55 187.576 1139.31 193.72C1133.16 199.768 1125.63 204.568 1116.7 208.12C1107.77 211.576 1097.55 213.304 1086.03 213.304C1079.4 213.304 1072.88 212.632 1066.44 211.288C1060.01 210.04 1053.82 208.216 1047.87 205.816C1042.01 203.416 1036.49 200.536 1031.31 197.176C1026.12 193.816 1021.52 190.072 1017.48 185.944L1028.86 167.368C1029.82 166.024 1031.07 164.92 1032.6 164.056C1034.14 163.096 1035.77 162.616 1037.5 162.616C1039.9 162.616 1042.49 163.624 1045.28 165.64C1048.06 167.56 1051.37 169.72 1055.21 172.12C1059.05 174.52 1063.52 176.728 1068.6 178.744C1073.79 180.664 1079.98 181.624 1087.18 181.624C1098.22 181.624 1106.76 179.032 1112.81 173.848C1118.86 168.568 1121.88 161.032 1121.88 151.24C1121.88 145.768 1120.49 141.304 1117.71 137.848C1115.02 134.392 1111.42 131.512 1106.91 129.208C1102.4 126.808 1097.26 124.792 1091.5 123.16C1085.74 121.528 1079.88 119.752 1073.93 117.832C1067.98 115.912 1062.12 113.608 1056.36 110.92C1050.6 108.232 1045.47 104.728 1040.96 100.408C1036.44 96.088 1032.8 90.712 1030.01 84.28C1027.32 77.752 1025.98 69.736 1025.98 60.232C1025.98 52.648 1027.47 45.256 1030.44 38.056C1033.52 30.856 1037.93 24.472 1043.69 18.904C1049.45 13.336 1056.56 8.87199 1065 5.51199C1073.45 2.152 1083.15 0.471998 1094.09 0.471998C1106.38 0.471998 1117.71 2.392 1128.08 6.23199C1138.44 10.072 1147.28 15.448 1154.57 22.36L1144.92 40.648Z" fill="white"/>
</svg>
