<svg width="1123" height="179" viewBox="0 0 1123 179" fill="none" xmlns="http://www.w3.org/2000/svg">
<path d="M131.065 135.739C132.839 135.739 134.412 136.425 135.784 137.796L148.61 151.711C141.511 160.504 132.759 167.239 122.353 171.918C112.027 176.597 99.6047 178.936 85.0847 178.936C72.0973 178.936 60.4007 176.718 49.9947 172.281C39.6693 167.844 30.8363 161.673 23.4957 153.768C16.155 145.863 10.5083 136.425 6.55566 125.454C2.68366 114.483 0.747665 102.504 0.747665 89.517C0.747665 76.3683 2.845 64.349 7.03967 53.459C11.2343 42.4883 17.123 33.0503 24.7057 25.145C32.369 17.2397 41.4843 11.109 52.0517 6.75299C62.619 2.31633 74.3157 0.0979985 87.1417 0.0979985C99.887 0.0979985 111.18 2.19533 121.022 6.38999C130.944 10.5847 139.373 16.07 146.311 22.846L135.421 37.971C134.775 38.939 133.928 39.786 132.88 40.512C131.912 41.238 130.54 41.601 128.766 41.601C127.556 41.601 126.305 41.2783 125.015 40.633C123.724 39.907 122.312 39.06 120.78 38.092C119.247 37.0433 117.472 35.914 115.456 34.704C113.439 33.494 111.1 32.405 108.438 31.437C105.776 30.3883 102.67 29.5413 99.1207 28.896C95.652 28.17 91.6187 27.807 87.0207 27.807C79.196 27.807 72.0167 29.2187 65.4827 32.042C59.0293 34.7847 53.4633 38.818 48.7847 44.142C44.106 49.3853 40.476 55.8387 37.8947 63.502C35.3133 71.0847 34.0227 79.7563 34.0227 89.517C34.0227 99.3583 35.394 108.111 38.1367 115.774C40.96 123.437 44.7513 129.891 49.5107 135.134C54.27 140.377 59.8763 144.411 66.3297 147.234C72.783 149.977 79.7203 151.348 87.1417 151.348C91.5783 151.348 95.5713 151.106 99.1207 150.622C102.751 150.138 106.058 149.372 109.043 148.323C112.108 147.274 114.972 145.943 117.634 144.33C120.376 142.636 123.079 140.579 125.741 138.159C126.547 137.433 127.394 136.868 128.282 136.465C129.169 135.981 130.097 135.739 131.065 135.739ZM333.984 89.517C333.984 102.343 331.846 114.241 327.571 125.212C323.376 136.102 317.407 145.54 309.663 153.526C301.919 161.512 292.602 167.764 281.712 172.281C270.822 176.718 258.722 178.936 245.412 178.936C232.182 178.936 220.123 176.718 209.233 172.281C198.343 167.764 188.985 161.512 181.161 153.526C173.417 145.54 167.407 136.102 163.132 125.212C158.856 114.241 156.719 102.343 156.719 89.517C156.719 76.691 158.856 64.833 163.132 53.943C167.407 42.9723 173.417 33.494 181.161 25.508C188.985 17.522 198.343 11.3107 209.233 6.874C220.123 2.35666 232.182 0.0979985 245.412 0.0979985C254.285 0.0979985 262.634 1.14666 270.459 3.24399C278.283 5.26066 285.463 8.16466 291.997 11.956C298.531 15.6667 304.379 20.2243 309.542 25.629C314.785 30.953 319.222 36.9223 322.852 43.537C326.482 50.1517 329.224 57.331 331.08 65.075C333.016 72.819 333.984 80.9663 333.984 89.517ZM300.709 89.517C300.709 79.9177 299.418 71.3267 296.837 63.744C294.255 56.0807 290.585 49.587 285.826 44.263C281.066 38.939 275.258 34.8653 268.402 32.042C261.626 29.2187 253.962 27.807 245.412 27.807C236.861 27.807 229.157 29.2187 222.301 32.042C215.525 34.8653 209.717 38.939 204.877 44.263C200.117 49.587 196.447 56.0807 193.866 63.744C191.284 71.3267 189.994 79.9177 189.994 89.517C189.994 99.1163 191.284 107.748 193.866 115.411C196.447 122.994 200.117 129.447 204.877 134.771C209.717 140.014 215.525 144.048 222.301 146.871C229.157 149.694 236.861 151.106 245.412 151.106C253.962 151.106 261.626 149.694 268.402 146.871C275.258 144.048 281.066 140.014 285.826 134.771C290.585 129.447 294.255 122.994 296.837 115.411C299.418 107.748 300.709 99.1163 300.709 89.517ZM510.067 2.03399V177H493.369C490.788 177 488.61 176.597 486.835 175.79C485.141 174.903 483.487 173.451 481.874 171.434L390.519 54.79C391.003 60.114 391.245 65.0347 391.245 69.552V177H362.568V2.03399H379.629C381 2.03399 382.17 2.11465 383.138 2.27598C384.187 2.35666 385.074 2.59866 385.8 3.00199C386.607 3.32466 387.373 3.849 388.099 4.57499C388.825 5.22033 389.632 6.10766 390.519 7.23699L482.237 124.365C481.995 121.542 481.793 118.759 481.632 116.016C481.471 113.273 481.39 110.732 481.39 108.393V2.03399H510.067ZM671.241 28.775H618.485V177H585.936V28.775H533.18V2.03399H671.241V28.775ZM769.565 110.934L748.269 52.733C747.22 50.1517 746.131 47.0863 745.002 43.537C743.872 39.9877 742.743 36.156 741.614 32.042C740.565 36.156 739.476 40.028 738.347 43.658C737.217 47.2073 736.128 50.313 735.08 52.975L713.905 110.934H769.565ZM827.04 177H801.872C799.048 177 796.749 176.314 794.975 174.943C793.2 173.491 791.869 171.716 790.982 169.619L777.914 133.924H705.435L692.367 169.619C691.721 171.474 690.471 173.168 688.616 174.701C686.76 176.234 684.461 177 681.719 177H656.309L725.158 2.03399H758.312L827.04 177ZM960.104 135.739C961.878 135.739 963.451 136.425 964.823 137.796L977.649 151.711C970.55 160.504 961.798 167.239 951.392 171.918C941.066 176.597 928.644 178.936 914.124 178.936C901.136 178.936 889.44 176.718 879.034 172.281C868.708 167.844 859.875 161.673 852.535 153.768C845.194 145.863 839.547 136.425 835.595 125.454C831.723 114.483 829.787 102.504 829.787 89.517C829.787 76.3683 831.884 64.349 836.079 53.459C840.273 42.4883 846.162 33.0503 853.745 25.145C861.408 17.2397 870.523 11.109 881.091 6.75299C891.658 2.31633 903.355 0.0979985 916.181 0.0979985C928.926 0.0979985 940.219 2.19533 950.061 6.38999C959.983 10.5847 968.412 16.07 975.35 22.846L964.46 37.971C963.814 38.939 962.967 39.786 961.919 40.512C960.951 41.238 959.579 41.601 957.805 41.601C956.595 41.601 955.344 41.2783 954.054 40.633C952.763 39.907 951.351 39.06 949.819 38.092C948.286 37.0433 946.511 35.914 944.495 34.704C942.478 33.494 940.139 32.405 937.477 31.437C934.815 30.3883 931.709 29.5413 928.16 28.896C924.691 28.17 920.658 27.807 916.06 27.807C908.235 27.807 901.056 29.2187 894.522 32.042C888.068 34.7847 882.502 38.818 877.824 44.142C873.145 49.3853 869.515 55.8387 866.934 63.502C864.352 71.0847 863.062 79.7563 863.062 89.517C863.062 99.3583 864.433 108.111 867.176 115.774C869.999 123.437 873.79 129.891 878.55 135.134C883.309 140.377 888.915 144.411 895.369 147.234C901.822 149.977 908.759 151.348 916.181 151.348C920.617 151.348 924.61 151.106 928.16 150.622C931.79 150.138 935.097 149.372 938.082 148.323C941.147 147.274 944.011 145.943 946.673 144.33C949.415 142.636 952.118 140.579 954.78 138.159C955.586 137.433 956.433 136.868 957.321 136.465C958.208 135.981 959.136 135.739 960.104 135.739ZM1122.15 28.775H1069.4V177H1036.85V28.775H984.094V2.03399H1122.15V28.775Z" fill="white"/>
</svg>
