<?xml version="1.0" encoding="UTF-8"?>
<svg id="Layer_1" data-name="Layer 1" xmlns="http://www.w3.org/2000/svg" viewBox="0 0 150 148.1">
  <defs>
    <style>
      .cls-1 {
        fill: #fff;
        stroke-width: 0px;
      }
    </style>
  </defs>
  <path class="cls-1" d="M108.4,102.1c-.3.2-.5.4-.8.6-1.9,1.6-4.5,1.9-6.7.8l-46.2-23.7c-2.1-1.1-3.4-3.3-3.3-5.6,0,0,0,0,0,0,0-2.3,1.4-4.5,3.5-5.5l48.3-22.8c2-1,4.4-.7,6.3.6,4.2,3,9.4,4.8,15,4.8,14.3,0,25.8-11.7,25.6-26C149.8,11.4,138.6.2,124.7,0c-14.3-.2-26,11.4-26,25.6s0,.7,0,1c0,2.5-1.3,4.7-3.5,5.8l-46.9,22.1c-2.1,1-4.6.7-6.5-.8-9-7.4-22.2-7.9-31.9-.4-3.3,2.5-5.8,5.7-7.5,9.2,0,0,0,0,0,.1,0,0,0,0,0,0-1.5,3-2.3,6.4-2.5,10-.6,14.7,11.4,27,26.1,26.7,5.6-.1,10.8-2,15-5.2,1.9-1.4,4.4-1.6,6.5-.5l47.5,24.3c2,1,3.3,3,3.4,5.3.2,5.2,1.9,10.4,5.3,14.8,8.6,11.2,24.8,13.3,36,4.6,11.2-8.6,13.3-24.8,4.6-36-8.6-11.2-24.8-13.3-36-4.6Z"/>
</svg>