<svg width="61" height="24" viewBox="0 0 61 24" fill="none" xmlns="http://www.w3.org/2000/svg">
<path d="M18.7933 2.448C18.7933 2.93866 18.6546 3.38667 18.3773 3.792L6.50525 20.56H18.5213V24H0.92125V22.304C0.92125 22.0907 0.958583 21.888 1.03325 21.696C1.10792 21.4933 1.20392 21.3067 1.32125 21.136L13.2253 4.288H1.67325V0.863998H18.7933V2.448ZM26.5523 4.288V10.704H34.6483V14.016H26.5523V20.56H36.8243V24H22.2323V0.863998H36.8243V4.288H26.5523ZM60.1425 0.863998V24H57.9345C57.5932 24 57.3052 23.9467 57.0705 23.84C56.8465 23.7227 56.6278 23.5307 56.4145 23.264L44.3345 7.84C44.3985 8.544 44.4305 9.19467 44.4305 9.792V24H40.6385V0.863998H42.8945C43.0758 0.863998 43.2305 0.874665 43.3585 0.895998C43.4972 0.906665 43.6145 0.938665 43.7105 0.991999C43.8172 1.03467 43.9185 1.104 44.0145 1.2C44.1105 1.28533 44.2172 1.40267 44.3345 1.552L56.4625 17.04C56.4305 16.6667 56.4038 16.2987 56.3825 15.936C56.3612 15.5733 56.3505 15.2373 56.3505 14.928V0.863998H60.1425Z" fill="white"/>
</svg>
