<svg width="668" height="144" viewBox="0 0 668 144" fill="none" xmlns="http://www.w3.org/2000/svg">
<path d="M108.9 7.89999C108.9 10.1 108.233 12.2333 106.9 14.3L25.8 128.2H107.7V144H0.3V136.4C0.3 135.333 0.466667 134.333 0.8 133.4C1.2 132.467 1.66667 131.567 2.2 130.7L83.5 16.5H4.1V0.699991H108.9V7.89999ZM222.013 128.2L221.913 144H133.613V0.699991H221.913V16.5H153.013V64.1H208.813V79.3H153.013V128.2H222.013ZM365.142 0.699991V144H355.442C353.909 144 352.609 143.733 351.542 143.2C350.542 142.667 349.542 141.767 348.542 140.5L265.642 32.5C265.776 34.1667 265.876 35.8 265.942 37.4C266.009 39 266.042 40.5 266.042 41.9V144H249.042V0.699991H259.042C259.909 0.699991 260.642 0.766657 261.242 0.899989C261.842 0.966658 262.376 1.13332 262.842 1.39999C263.309 1.59999 263.776 1.93333 264.242 2.4C264.709 2.79999 265.209 3.33332 265.742 3.99999L348.642 111.9C348.509 110.167 348.376 108.5 348.242 106.9C348.176 105.233 348.142 103.667 348.142 102.2V0.699991H365.142ZM421.177 16.5V66.6H480.077V82.4H421.177V144H401.777V0.699991H490.077V16.5H421.177ZM534.263 144H514.863V0.699991H534.263V144ZM667.817 17H621.417V144H602.117V17H555.617V0.699991H667.817V17Z" fill="white"/>
</svg>
